<?xml version="1.0" encoding="UTF-8"?>
<!-- Created with Inkscape (http://www.inkscape.org/) -->
<svg width="300" height="300" version="1.1" viewBox="0 0 79.374998 79.375002" xmlns="http://www.w3.org/2000/svg" xmlns:cc="http://creativecommons.org/ns#" xmlns:dc="http://purl.org/dc/elements/1.1/" xmlns:rdf="http://www.w3.org/1999/02/22-rdf-syntax-ns#">
 <metadata>
  <rdf:RDF>
   <cc:Work rdf:about="">
    <dc:format>image/svg+xml</dc:format>
    <dc:type rdf:resource="http://purl.org/dc/dcmitype/StillImage"/>
    <dc:title/>
   </cc:Work>
  </rdf:RDF>
 </metadata>
 <rect x="-4.2188e-15" y="-4.8828e-6" width="79.375" height="79.375" fill="#ccc" stroke-width="1.3229"/>
 <g transform="translate(-.24241 3.3238)">
  <text x="39.771439" y="61.412868" fill="#777777" fill-opacity=".86765" font-family="sans-serif" font-size="5.6444px" letter-spacing="0px" stroke-width=".26458" text-align="center" text-anchor="middle" word-spacing="0px" style="font-feature-settings:normal;font-variant-caps:normal;font-variant-ligatures:normal;font-variant-numeric:normal;line-height:1.25" xml:space="preserve"><tspan x="39.771439" y="61.412868" fill="#777777" fill-opacity=".86765" font-family="sans-serif" font-size="7.0556px" text-align="center" text-anchor="middle" style="font-feature-settings:normal;font-variant-caps:normal;font-variant-ligatures:normal;font-variant-numeric:normal;line-height:1.5">No Image Available</tspan></text>
  <path d="m60.289 9.847h-41.203c-2.6257 0-4.7542 2.1285-4.7542 4.7542v28.525c0 2.6257 2.1285 4.7542 4.7542 4.7542h41.203c2.6257 0 4.7542-2.1285 4.7542-4.7542v-28.525c0-2.6257-2.1285-4.7542-4.7542-4.7542zm-0.59427 33.279h-40.014a0.59427 0.59427 0 0 1 -0.59427 -0.59427v-27.336a0.59427 0.59427 0 0 1 0.59427 -0.59427h40.014a0.59427 0.59427 0 0 1 0.59427 0.59427v27.336a0.59427 0.59427 0 0 1 -0.59427 0.59427zm-32.685-24.563c-2.188 0-3.9618 1.7738-3.9618 3.9618 0 2.188 1.7738 3.9618 3.9618 3.9618 2.188 0 3.9618-1.7738 3.9618-3.9618 0-2.188-1.7738-3.9618-3.9618-3.9618zm-3.1694 19.809h31.694v-7.9236l-8.6679-8.6679c-0.46412-0.46413-1.2167-0.46413-1.6809 0l-11.837 11.837-3.9138-3.9138c-0.46413-0.46412-1.2167-0.46412-1.6809 0l-3.9137 3.9138z" fill="#aaa" fill-opacity=".97059" stroke-width=".099045"/>
 </g>
</svg>
