<?xml version="1.0" encoding="UTF-8"?>
<!-- Generator: Adobe Illustrator 16.0.0, SVG Export Plug-In . SVG Version: 6.00 Build 0)  -->
<svg width="1132.8" height="926.02" enable-background="new 0 0 1920 1417" version="1.1" viewBox="0 0 1132.804 926.02478" xml:space="preserve" xmlns="http://www.w3.org/2000/svg" xmlns:cc="http://creativecommons.org/ns#" xmlns:dc="http://purl.org/dc/elements/1.1/" xmlns:rdf="http://www.w3.org/1999/02/22-rdf-syntax-ns#"><metadata><rdf:RDF><cc:Work rdf:about=""><dc:format>image/svg+xml</dc:format><dc:type rdf:resource="http://purl.org/dc/dcmitype/StillImage"/><dc:title/></cc:Work></rdf:RDF></metadata><g transform="matrix(3.78 0 0 3.78 -3069.9 -1900.5)"><path d="m894.92 699.87c0 0.92-0.746 1.667-1.667 1.667s-1.667-0.746-1.667-1.667v-177.5c0-0.92 0.746-1.667 1.667-1.667s1.667 0.746 1.667 1.667z"/><path d="m998.92 699.87c0 0.92-0.746 1.667-1.666 1.667-0.921 0-1.667-0.746-1.667-1.667v-177.5c0-0.92 0.746-1.667 1.667-1.667 0.92 0 1.666 0.746 1.666 1.667z"/><path d="m1017.6 681.95c0 0.92-0.746 1.667-1.666 1.667-0.921 0-1.667-0.746-1.667-1.667v-177.5c0-0.92 0.746-1.667 1.667-1.667 0.92 0 1.666 0.746 1.666 1.667z"/><path d="m905.92 612.79c-0.92 0-1.666-0.746-1.666-1.667 0-0.92 0.746-1.667 1.666-1.667h78.418c0.92 0 1.666 0.746 1.666 1.667 0 0.92-0.746 1.667-1.666 1.667z"/><path d="m911.92 599.37h-3.333v-94.917c0-0.92 0.746-1.667 1.667-1.667 0.92 0 1.666 0.746 1.666 1.667z"/><path d="m908.59 621.79h3.333v60.166c0 0.92-0.746 1.667-1.667 1.667-0.92 0-1.666-0.746-1.666-1.667z"/><text x="808.62805" y="747.16162" font-family="'Telugu MN'" font-size="40px" letter-spacing="1" style="font-feature-settings:normal;font-variant-caps:normal;font-variant-ligatures:normal;font-variant-numeric:normal">H U R A H O O D</text>
</g><g id="Previous_Version" transform="translate(-73.598 -313.99)" display="none"><text transform="translate(43.666 306.75)" display="inline" font-family="DolceVitaLight" font-size="60px">H U R A H O O D</text>
<path d="m159.47 241.17c0 1.84 1.492 3.332 3.333 3.332s3.333-1.492 3.333-3.332v-173.33c0-1.841-1.492-3.333-3.333-3.333s-3.333 1.492-3.333 3.333z" display="inline"/><path d="m181.47 152.17c-1.84 0-3.332 1.492-3.332 3.333s1.492 3.333 3.332 3.333h86.001c1.842 0 3.334-1.492 3.334-3.333s-1.492-3.333-3.334-3.333z" display="inline"/><path d="m282.8 241.17c0 1.84 1.492 3.332 3.332 3.332 1.842 0 3.334-1.492 3.334-3.332v-173.33c0-1.841-1.492-3.333-3.334-3.333-1.84 0-3.332 1.492-3.332 3.333z" display="inline"/><path d="m190.47 143.24h6.667v-92.398c0-1.841-1.492-3.333-3.333-3.333s-3.333 1.492-3.333 3.333v92.398z" display="inline"/><path d="m313.8 223.17c0 1.84 1.492 3.332 3.332 3.332 1.842 0 3.334-1.492 3.334-3.332v-172.33c0-1.841-1.492-3.333-3.334-3.333-1.84 0-3.332 1.492-3.332 3.333z" display="inline"/><path d="m197.13 168.5h-6.667v56.334c0 1.842 1.492 3.334 3.333 3.334s3.333-1.492 3.333-3.334v-56.334z" display="inline"/><path d="m159.47 538.89c0 1.84 1.492 3.333 3.333 3.333s3.333-1.493 3.333-3.333v-173.33c0-1.841-1.492-3.333-3.333-3.333s-3.333 1.492-3.333 3.333z" display="inline"/><path d="m181.47 449.88c-1.84 0-3.332 1.492-3.332 3.333s1.492 3.333 3.332 3.333h86.001c1.842 0 3.334-1.492 3.334-3.333s-1.492-3.333-3.334-3.333z" display="inline"/><path d="m282.8 538.89c0 1.84 1.492 3.333 3.332 3.333 1.842 0 3.334-1.493 3.334-3.333v-173.33c0-1.841-1.492-3.333-3.334-3.333-1.84 0-3.332 1.492-3.332 3.333z" display="inline"/><path d="m190.47 440.95h6.667v-92.398c0-1.841-1.492-3.333-3.333-3.333s-3.333 1.492-3.333 3.333v92.398z" display="inline"/><path d="m313.8 520.89c0 1.84 1.492 3.332 3.332 3.332 1.842 0 3.334-1.492 3.334-3.332v-172.33c0-1.841-1.492-3.333-3.334-3.333-1.84 0-3.332 1.492-3.332 3.333z" display="inline"/><path d="m197.13 466.22h-6.667v56.334c0 1.842 1.492 3.334 3.333 3.334s3.333-1.492 3.333-3.334v-56.334z" display="inline"/><g font-family="DolceVita" font-size="49.419px"><text transform="translate(157.8 632.8)" display="inline">H O O D</text>
<text transform="translate(157.8 587.8)" display="inline">H</text>
<text transform="translate(200.47 587.8)" display="inline">U</text>
<text transform="translate(248.13 587.8)" display="inline">R</text>
<text transform="translate(292.8 587.8)" display="inline">A</text>
</g><path d="m159.47 886.87c0 1.84 1.492 3.332 3.333 3.332s3.333-1.492 3.333-3.332v-173.34c0-1.841-1.492-3.333-3.333-3.333s-3.333 1.492-3.333 3.333z" display="inline"/><path d="m181.47 797.87c-1.84 0-3.332 1.492-3.332 3.334 0 1.84 1.492 3.332 3.332 3.332h86.001c1.842 0 3.334-1.492 3.334-3.332 0-1.842-1.492-3.334-3.334-3.334z" display="inline"/><path d="m282.8 886.87c0 1.84 1.492 3.332 3.332 3.332 1.842 0 3.334-1.492 3.334-3.332v-173.34c0-1.841-1.492-3.333-3.334-3.333-1.84 0-3.332 1.492-3.332 3.333z" display="inline"/><path d="m190.47 788.93h6.667v-92.397c0-1.841-1.492-3.333-3.333-3.333s-3.333 1.492-3.333 3.333v92.397z" display="inline"/><path d="m313.8 868.87c0 1.84 1.492 3.332 3.332 3.332 1.842 0 3.334-1.492 3.334-3.332v-172.34c0-1.841-1.492-3.333-3.334-3.333-1.84 0-3.332 1.492-3.332 3.333z" display="inline"/><path d="m197.13 814.2h-6.667v56.334c0 1.842 1.492 3.334 3.333 3.334s3.333-1.492 3.333-3.334v-56.334z" display="inline"/><text transform="translate(157.8 993.53)" display="inline" font-family="DolceVita" font-size="49.419px">H O O D</text>
<rect x="159.47" y="945.53" width="159.53" height="3" display="inline"/><g font-family="DolceVita" font-size="49.419px"><text transform="translate(157.8 934.78)" display="inline">H</text>
<text transform="translate(200.47 934.78)" display="inline">U</text>
<text transform="translate(248.13 934.78)" display="inline">R</text>
<text transform="translate(292.8 934.78)" display="inline">A</text>
</g><path d="m437.79 541.38c0 0.92-0.746 1.666-1.667 1.666s-1.667-0.746-1.667-1.666v-147.5c0-0.92 0.746-1.667 1.667-1.667s1.667 0.746 1.667 1.667z" display="inline"/><path d="m541.79 541.38c0 0.92-0.746 1.666-1.666 1.666-0.921 0-1.667-0.746-1.667-1.666v-147.5c0-0.92 0.746-1.667 1.667-1.667 0.92 0 1.666 0.746 1.666 1.667z" display="inline"/><path d="m560.46 523.47c0 0.92-0.746 1.666-1.666 1.666-0.921 0-1.667-0.746-1.667-1.666v-147.5c0-0.92 0.746-1.667 1.667-1.667 0.92 0 1.666 0.746 1.666 1.667z" display="inline"/><path d="m448.79 469.3c-0.92 0-1.666-0.746-1.666-1.667 0-0.92 0.746-1.666 1.666-1.666h78.418c0.92 0 1.666 0.746 1.666 1.666 0 0.921-0.746 1.667-1.666 1.667z" display="inline"/><path d="m454.79 456.55h-3.333v-80.583c0-0.92 0.746-1.667 1.667-1.667 0.92 0 1.666 0.746 1.666 1.667z" display="inline"/><path d="m451.46 480.39h3.333v43.082c0 0.92-0.746 1.666-1.667 1.666-0.92 0-1.666-0.746-1.666-1.666z" display="inline"/><g font-family="DolceVitaLight" font-size="37.95px"><text transform="translate(432.79 614.32)" display="inline">H o o D</text>
<text transform="translate(432.79 579.32)" display="inline">H</text>
<text transform="translate(466.29 579.32)" display="inline">U</text>
<text transform="translate(505.79 579.32)" display="inline">R</text>
<text transform="translate(539.45 579.32)" display="inline">A</text>
</g><path d="m437.79 889.37c0 0.92-0.746 1.666-1.667 1.666s-1.667-0.746-1.667-1.666v-147.5c0-0.92 0.746-1.666 1.667-1.666s1.667 0.746 1.667 1.666z" display="inline"/><path d="m541.79 889.37c0 0.92-0.746 1.666-1.666 1.666-0.921 0-1.667-0.746-1.667-1.666v-147.5c0-0.92 0.746-1.666 1.667-1.666 0.92 0 1.666 0.746 1.666 1.666z" display="inline"/><path d="m560.46 871.45c0 0.92-0.746 1.666-1.666 1.666-0.921 0-1.667-0.746-1.667-1.666v-147.5c0-0.921 0.746-1.667 1.667-1.667 0.92 0 1.666 0.746 1.666 1.667z" display="inline"/><path d="m448.79 817.28c-0.92 0-1.666-0.746-1.666-1.666s0.746-1.666 1.666-1.666h78.418c0.92 0 1.666 0.746 1.666 1.666s-0.746 1.666-1.666 1.666z" display="inline"/><path d="m454.79 804.53h-3.333v-80.582c0-0.921 0.746-1.667 1.667-1.667 0.92 0 1.666 0.746 1.666 1.667z" display="inline"/><path d="m451.46 828.37h3.333v43.082c0 0.92-0.746 1.666-1.667 1.666-0.92 0-1.666-0.746-1.666-1.666z" display="inline"/><text transform="translate(432.79 968.63)" display="inline" font-family="DolceVitaLight" font-size="37.95px">H o o D</text>
<rect x="434.45" y="934.37" width="124.19" height=".833" display="inline"/><g font-family="DolceVitaLight" font-size="37.95px"><text transform="translate(432.79 927.3)" display="inline">H</text>
<text transform="translate(466.29 927.3)" display="inline">U</text>
<text transform="translate(505.79 927.3)" display="inline">R</text>
<text transform="translate(539.45 927.3)" display="inline">A</text>
</g></g></svg>
